<svg width="19" height="16" viewBox="0 0 19 16" fill="none" xmlns="http://www.w3.org/2000/svg">
<path fill-rule="evenodd" clip-rule="evenodd" d="M13.0406 1.04243C13.4315 0.650783 13.9737 0.260133 14.2454 0.174434C15.5594 -0.239656 16.7157 0.0506163 17.7092 1.04398C18.4404 1.77517 18.7633 2.49026 18.7633 3.3783C18.7633 5.60998 16.2716 7.38113 14.2943 6.55492C14.0155 6.43845 13.7663 6.34315 13.7403 6.34315C13.7145 6.34315 13.7903 6.61323 13.9089 6.94318C14.2157 7.79705 14.3101 9.37746 14.1115 10.3334C13.845 11.6151 13.0925 12.9648 12.1349 13.8781C9.44183 16.4468 5.36517 16.4098 2.75173 13.793C-0.153965 10.8836 0.115272 6.26945 3.33877 3.73182C5.68706 1.88317 9.16709 1.82599 11.4903 3.59813L11.9865 3.9765V3.44677C11.9865 2.49068 12.2929 1.79168 13.0406 1.04243ZM11.5638 7.11966C11.1174 6.21157 10.2671 5.36602 9.37466 4.94261C8.45301 4.50523 6.94857 4.41092 6.05756 4.73465C2.19832 6.13702 1.89265 11.3162 5.56271 13.1208C6.14777 13.4085 6.47405 13.4673 7.46868 13.4637C8.48563 13.4601 8.77872 13.4023 9.38976 13.0856C10.4532 12.5346 10.8966 12.1064 11.4299 11.1153C11.8663 10.3045 11.9086 10.1195 11.9097 9.02563C11.9107 8.03495 11.8504 7.70246 11.5638 7.11966ZM16.1578 2.59577C16.3763 2.81418 16.5044 3.10361 16.5044 3.37864C16.5044 3.65366 16.3763 3.94309 16.1578 4.1615C15.9394 4.38005 15.65 4.5081 15.3749 4.5081C15.0999 4.5081 14.8105 4.38005 14.5921 4.1615C14.3735 3.94309 14.2455 3.65366 14.2455 3.37864C14.2455 3.10361 14.3735 2.81418 14.5921 2.59577C14.8105 2.37722 15.0999 2.24917 15.3749 2.24917C15.65 2.24917 15.9394 2.37722 16.1578 2.59577Z" fill="#DB3138"/>
</svg>
